<?xml version="1.0" standalone="no"?>
<!DOCTYPE svg PUBLIC "-//W3C//DTD SVG 20010904//EN"
 "http://www.w3.org/TR/2001/REC-SVG-20010904/DTD/svg10.dtd">
<svg version="1.0" xmlns="http://www.w3.org/2000/svg"
 width="800.000000pt" height="800.000000pt" viewBox="0 0 800.000000 800.000000"
 preserveAspectRatio="xMidYMid meet">
<metadata>
Created by potrace 1.11, written by Peter Selinger 2001-2013
</metadata>
<g transform="translate(0.000000,800.000000) scale(0.100000,-0.100000)"
fill="#000000" stroke="none">
<path d="M283 6795 c-70 -21 -119 -55 -169 -117 -35 -43 -52 -199 -32 -278 12
-47 46 -119 69 -149 16 -19 17 -27 7 -39 -36 -43 -56 -116 -53 -196 2 -45 5
-88 7 -96 11 -35 30 -75 50 -103 21 -29 21 -31 4 -81 -33 -99 -41 -249 -16
-297 6 -10 8 -19 5 -19 -9 0 46 -102 79 -146 76 -101 227 -151 305 -102 31 19
33 39 10 87 -11 24 -23 53 -25 65 -2 12 -8 44 -13 71 -10 52 -8 294 4 355 38
205 124 372 250 487 36 33 78 66 93 74 15 7 33 18 41 23 14 11 57 28 128 50
58 19 244 14 275 -6 l23 -15 -2 -554 c0 -305 -3 -565 -6 -579 -10 -52 -19 -80
-28 -80 -5 0 -9 -6 -9 -14 0 -12 -55 -74 -92 -103 -9 -6 -43 -25 -77 -42 -57
-29 -78 -51 -48 -51 7 0 36 -16 64 -35 29 -19 56 -35 60 -35 11 0 123 -118
122 -128 -1 -4 0 -9 1 -12 10 -27 12 -123 13 -640 2 -672 6 -636 -76 -702 -97
-78 -235 -104 -331 -64 -46 19 -59 3 -56 -74 5 -172 351 -266 570 -155 l49 25
53 -24 c84 -39 147 -52 233 -49 78 2 165 23 231 57 29 15 33 14 82 -9 29 -14
59 -25 68 -25 8 0 24 -5 34 -10 26 -14 143 -18 210 -8 119 19 242 103 256 175
7 38 -2 99 -16 108 -5 3 -24 -2 -42 -12 -46 -24 -156 -21 -229 7 -63 23 -139
84 -160 128 -12 25 -14 132 -14 634 l0 605 30 59 c34 65 90 114 186 161 32 15
58 31 58 34 1 4 -23 19 -51 34 -117 61 -192 136 -215 215 -7 21 -9 1160 -3
1169 12 17 84 28 181 26 88 -1 114 -6 174 -30 92 -37 137 -67 211 -141 169
-166 255 -411 249 -703 -1 -69 -8 -146 -14 -171 -19 -71 -34 -110 -43 -110 -4
0 -8 -11 -8 -25 0 -64 127 -82 227 -32 163 83 253 354 179 537 -23 57 -25 90
-6 90 4 0 20 28 36 63 48 105 37 266 -24 339 -12 14 -9 23 21 67 72 104 82
263 25 379 -53 104 -204 173 -316 142 -46 -12 -55 -26 -42 -70 13 -44 1 -99
-24 -115 -25 -17 -73 -14 -161 10 -197 53 -253 66 -294 70 -25 3 -59 7 -76 10
-16 2 -80 5 -141 6 -118 1 -185 -12 -273 -55 -46 -22 -47 -22 -76 -4 -77 47
-248 74 -335 53 -14 -3 -36 -8 -50 -11 -14 -3 -48 -18 -77 -33 -28 -16 -55
-25 -60 -21 -16 14 -119 49 -177 61 -59 11 -199 14 -264 5 -18 -3 -52 -8 -75
-11 -23 -3 -49 -8 -57 -10 -8 -2 -31 -7 -50 -10 -48 -8 -183 -43 -217 -56 -15
-6 -51 -12 -79 -14 -41 -3 -56 0 -68 14 -19 21 -29 93 -16 125 11 30 3 41 -41
55 -42 13 -91 12 -146 -4z m1330 -838 c45 -60 50 -74 64 -197 9 -77 8 -1705
-1 -1767 -3 -24 -8 -60 -10 -80 -6 -61 -43 -143 -77 -174 -18 -16 -33 -28 -35
-26 -1 1 -5 216 -8 477 -3 261 -8 507 -11 545 -9 116 -31 152 -119 197 l-47
24 48 22 c52 24 99 80 107 128 13 81 25 437 26 807 0 94 1 97 20 87 10 -6 30
-25 43 -43z"/>
<path d="M2810 4975 c-87 -22 -138 -64 -168 -135 -20 -48 -23 -133 -5 -151 7
-7 23 -5 49 6 23 10 66 17 104 17 54 1 78 -5 132 -31 76 -37 89 -50 111 -111
9 -25 52 -142 95 -260 44 -118 103 -278 131 -355 29 -77 66 -174 82 -215 85
-205 98 -248 95 -309 -3 -52 -42 -102 -124 -158 -67 -45 -67 -47 8 -78 67 -28
176 -102 208 -141 34 -41 76 -124 162 -319 67 -150 89 -200 119 -269 11 -24
74 -166 141 -317 67 -151 132 -296 144 -324 13 -27 56 -124 96 -215 40 -91 86
-194 102 -230 17 -36 37 -83 46 -105 41 -106 88 -124 151 -57 30 31 141 234
141 257 0 3 8 25 19 48 15 35 153 397 196 514 6 18 14 36 18 39 4 4 7 13 7 21
0 7 26 82 59 166 67 175 156 410 157 417 0 3 5 16 11 30 15 34 65 162 68 175
1 6 5 17 8 25 17 40 189 496 190 505 2 6 5 15 8 20 4 6 9 22 13 38 9 38 22 34
34 -10 5 -21 44 -137 86 -258 43 -121 88 -254 102 -295 14 -41 29 -84 34 -95
7 -16 30 -84 35 -105 1 -3 4 -12 8 -20 8 -23 109 -314 111 -325 2 -5 6 -17 9
-25 6 -15 59 -168 122 -355 18 -55 70 -206 115 -335 44 -129 98 -284 118 -344
40 -116 56 -135 106 -122 51 13 100 87 176 263 38 89 116 297 125 333 2 8 27
80 55 160 29 80 59 168 67 195 8 28 18 55 21 60 4 6 7 15 8 20 2 6 15 44 29
85 15 41 47 134 71 205 25 72 47 137 51 145 3 8 7 20 8 25 7 29 72 176 99 220
51 86 153 205 176 205 5 0 10 4 10 10 0 5 49 33 108 63 l108 53 -69 32 c-183
88 -186 139 -31 562 26 69 55 150 66 180 11 30 24 64 28 75 5 11 45 124 90
250 46 127 89 244 97 260 16 36 108 100 167 116 62 18 157 15 210 -5 26 -10
50 -15 54 -11 7 7 8 119 1 145 -9 34 -48 88 -80 112 -69 50 -173 57 -284 17
-59 -21 -63 -21 -95 -4 -76 39 -192 40 -273 1 -56 -26 -58 -26 -89 -9 -91 49
-236 50 -312 3 -55 -34 -88 -85 -92 -142 -2 -42 8 -103 19 -114 1 -2 25 4 52
12 116 36 293 18 351 -37 19 -18 21 -25 12 -43 -6 -11 -10 -21 -9 -21 1 0 -2
-13 -8 -28 -6 -16 -11 -32 -11 -36 0 -5 -15 -55 -34 -112 -19 -57 -71 -219
-116 -359 -45 -140 -84 -262 -87 -270 -3 -8 -7 -19 -8 -25 -4 -13 -115 -356
-164 -505 -21 -63 -71 -218 -112 -343 -40 -125 -74 -224 -75 -220 -3 9 -98
314 -156 493 -22 69 -51 159 -64 200 -39 126 -124 391 -149 465 -12 39 -46
144 -74 235 -29 91 -66 206 -82 255 -16 50 -31 97 -33 105 -6 24 -58 184 -63
192 -6 11 85 47 141 56 70 11 131 6 179 -13 39 -16 42 -15 54 1 16 22 10 118
-8 142 -60 79 -127 118 -234 137 -134 23 -248 7 -341 -47 -30 -18 -31 -18 -90
12 -128 63 -342 58 -446 -12 -34 -23 -37 -23 -92 8 -77 43 -209 62 -286 41 -8
-3 -29 -8 -46 -12 -49 -11 -120 -82 -137 -137 -16 -50 -15 -124 3 -142 6 -6
17 -6 32 1 84 41 211 33 268 -17 12 -11 26 -18 30 -15 16 10 39 -34 74 -140
20 -60 41 -119 46 -130 12 -27 43 -126 47 -148 2 -10 9 -30 17 -45 7 -15 17
-40 21 -57 10 -37 10 -36 20 -59 5 -11 9 -34 9 -50 0 -25 -80 -265 -160 -481
-8 -22 -17 -48 -19 -58 -2 -9 -7 -22 -10 -27 -3 -5 -8 -18 -10 -27 -8 -34
-124 -362 -135 -383 -6 -11 -9 -20 -6 -20 3 0 -2 -17 -10 -37 -9 -20 -17 -44
-19 -52 -4 -18 -118 -343 -133 -381 -9 -21 -13 -19 -12 5 0 3 -6 18 -13 33 -8
15 -28 68 -45 117 -17 50 -43 122 -57 160 -15 39 -35 95 -45 125 -38 108 -59
167 -124 350 -37 102 -72 199 -78 215 -15 43 -43 121 -67 185 -11 30 -46 127
-77 215 -31 88 -74 210 -96 270 -22 61 -44 121 -48 135 -4 14 -27 77 -50 140
-59 160 -58 152 -12 172 85 36 201 42 273 14 48 -20 56 -16 65 30 8 44 -10
111 -40 144 -21 24 -80 70 -90 70 -3 0 -17 5 -33 11 -15 6 -29 11 -30 11 -31
12 -150 25 -201 23 -68 -3 -172 -35 -204 -62 -15 -13 -24 -11 -80 15 -35 17
-86 35 -115 40 -107 19 -249 -2 -335 -51 l-37 -20 -58 30 c-32 17 -74 34 -92
38 -58 12 -153 12 -201 0z m2684 -732 c41 -111 113 -307 126 -338 5 -11 41
-108 80 -215 94 -256 138 -374 149 -402 6 -13 37 -95 69 -183 214 -572 236
-635 246 -699 4 -21 8 -41 11 -45 4 -7 12 -68 21 -151 7 -68 8 -209 2 -215 -5
-5 -22 39 -103 265 -15 41 -31 79 -36 84 -5 6 -9 18 -9 28 0 10 -4 26 -10 36
-5 9 -59 152 -120 317 -61 165 -114 307 -117 315 -3 8 -7 22 -9 30 -2 8 -7 23
-13 35 -19 37 -259 690 -265 720 -1 6 -4 15 -8 20 -3 6 -9 26 -13 45 -4 19
-11 40 -16 46 -34 42 -47 286 -18 332 7 12 14 22 15 22 1 0 9 -21 18 -47z
m-1964 23 c0 -7 8 -31 17 -52 9 -22 17 -41 18 -44 1 -3 4 -12 8 -20 3 -8 13
-37 22 -65 10 -27 21 -59 25 -70 4 -11 13 -36 20 -55 7 -19 16 -44 20 -55 7
-17 104 -307 114 -340 2 -5 8 -23 14 -38 7 -16 12 -31 12 -35 0 -4 12 -36 26
-72 15 -36 30 -74 34 -85 10 -23 151 -382 185 -470 13 -33 33 -87 45 -120 12
-33 26 -69 30 -80 5 -11 25 -65 46 -120 37 -101 158 -413 174 -450 21 -48 40
-98 40 -106 0 -16 -80 30 -113 65 -18 18 -41 50 -52 72 -11 21 -25 46 -31 54
-6 8 -25 51 -42 95 -61 159 -124 321 -138 353 -31 71 -43 100 -74 172 -62 147
-160 341 -184 364 -21 22 -67 40 -131 52 -81 15 -79 13 -27 40 26 14 57 36 70
51 20 22 22 32 17 87 -3 33 -12 85 -19 114 -8 28 -12 52 -9 52 3 0 1 6 -4 13
-6 6 -16 35 -23 62 -7 28 -17 55 -21 60 -4 6 -13 33 -20 60 -6 28 -15 55 -19
60 -4 6 -24 73 -45 150 -44 164 -51 260 -21 294 22 24 36 27 36 7z"/>
<path d="M10 2630 c-5 -3 -8 -34 -7 -69 2 -53 5 -65 20 -67 9 -1 17 1 18 4 7
61 33 92 78 92 l28 0 -1 -166 c-1 -176 1 -168 -44 -191 -2 -1 -1 -10 2 -20 5
-16 16 -18 88 -16 104 2 97 0 94 18 -2 16 -13 29 -27 31 -5 1 -12 2 -16 3 -5
0 -8 77 -8 171 l0 170 31 0 c40 0 61 -17 72 -60 6 -25 14 -35 28 -35 17 0 19
8 19 67 0 38 -4 68 -10 69 -40 4 -359 3 -365 -1z"/>
<path d="M494 2631 c-2 -2 -4 -14 -4 -27 0 -17 4 -21 20 -17 24 6 22 21 24
-160 1 -157 -4 -187 -29 -187 -11 0 -15 -7 -13 -22 3 -21 6 -22 160 -22 87 0
160 2 162 5 5 5 8 45 7 96 -1 33 -4 41 -18 39 -10 -2 -21 -16 -25 -34 -5 -17
-18 -37 -31 -44 -23 -12 -116 -19 -118 -9 -1 3 -2 39 -3 79 l-1 73 30 -3 c20
-2 33 -11 40 -25 5 -13 19 -23 30 -23 20 0 22 13 16 133 -2 31 -46 18 -46 -13
0 -25 -3 -26 -53 -22 -16 2 -18 11 -17 62 1 33 6 65 12 71 6 6 28 11 48 11 42
0 75 -26 78 -61 1 -16 7 -21 21 -19 17 3 20 11 21 51 0 27 -3 54 -7 60 -6 11
-294 18 -304 8z"/>
<path d="M963 2632 c-14 -2 -21 -10 -20 -23 1 -19 9 -23 35 -20 9 2 11 -35 8
-163 -2 -90 -7 -169 -10 -175 -4 -6 -14 -11 -22 -11 -10 0 -14 -8 -12 -22 3
-20 9 -22 66 -23 48 0 66 4 72 16 11 20 0 35 -25 34 -18 0 -19 7 -18 105 1 58
2 119 3 135 2 29 2 28 13 -10 7 -22 34 -95 61 -163 49 -122 50 -123 80 -120
28 3 33 9 59 78 76 204 90 240 96 235 3 -3 6 -62 8 -130 l3 -125 -24 -6 c-20
-5 -23 -10 -17 -27 7 -18 16 -20 77 -20 99 1 96 1 92 26 -2 14 -10 22 -22 22
-20 0 -20 6 -28 275 -1 51 3 61 27 70 27 10 25 39 -4 41 -92 8 -131 4 -131
-13 0 -6 -6 -24 -14 -41 -7 -18 -19 -48 -26 -67 -13 -37 -15 -44 -49 -130 -11
-31 -21 -61 -21 -68 0 -6 -5 -12 -12 -12 -6 0 -9 3 -5 6 3 3 -3 26 -13 50 -11
24 -20 46 -20 49 -1 3 -7 19 -14 37 -7 18 -25 67 -41 108 -16 41 -30 77 -32
79 -4 5 -89 7 -120 3z"/>
<path d="M1615 2631 c-9 -8 -5 -41 5 -42 6 -1 16 -2 23 -3 9 -1 12 -37 12
-146 0 -173 -2 -191 -26 -197 -21 -6 -26 -42 -6 -44 6 -1 48 -1 91 -2 67 0 80
2 82 16 2 18 -12 31 -36 32 -11 0 -15 13 -16 53 0 31 4 52 10 53 60 4 105 13
130 26 36 18 75 59 78 82 5 59 3 78 -14 107 -31 52 -75 67 -210 69 -65 0 -121
-1 -123 -4z m234 -67 c40 -51 18 -147 -36 -158 -61 -13 -67 -6 -68 73 0 97 6
111 49 111 25 0 40 -7 55 -26z"/>
<path d="M2055 2630 c-1 -3 -3 -34 -4 -70 -2 -59 0 -66 18 -67 14 -1 21 7 25
32 8 39 38 65 76 65 l26 0 0 -167 c-1 -157 -2 -168 -21 -178 -11 -5 -21 -18
-23 -27 -3 -19 0 -20 103 -20 84 0 82 0 81 25 -1 16 -7 22 -23 21 -15 -1 -23
5 -24 15 -3 74 1 322 5 330 9 14 65 -4 82 -26 7 -10 14 -28 14 -40 0 -26 12
-35 34 -27 11 4 14 16 12 42 -3 21 -5 51 -5 67 l-1 30 -186 0 c-102 0 -187 -2
-189 -5z"/>
<path d="M1723 1851 c-6 -3 -33 -71 -62 -151 -78 -218 -85 -234 -109 -245 -13
-5 -20 -16 -17 -23 3 -8 5 -17 5 -20 0 -4 28 -7 62 -6 60 1 63 2 63 25 0 17
-5 24 -17 23 -21 -2 -22 2 -7 45 6 17 18 32 27 32 10 1 41 2 69 3 52 2 53 1
64 -33 10 -29 9 -36 -6 -47 -9 -7 -15 -21 -13 -30 3 -16 14 -18 83 -18 75 0
80 1 83 22 3 20 -6 27 -30 23 -5 0 -8 8 -8 18 0 11 -4 23 -10 26 -5 3 -10 16
-10 29 0 12 -4 26 -8 31 -5 6 -14 24 -20 40 -6 17 -17 44 -23 60 -7 17 -13 32
-13 35 -1 3 -15 40 -31 82 -28 72 -49 95 -72 79z m44 -268 c-3 -2 -25 -3 -50
-1 l-45 3 14 40 c8 22 16 45 18 50 15 60 18 60 43 -14 13 -40 22 -75 20 -78z"/>
<path d="M401 1840 c-14 -10 -6 -45 9 -43 12 2 31 -45 80 -194 62 -190 66
-198 92 -200 26 -2 28 3 57 95 16 53 35 117 42 142 14 51 29 74 29 44 0 -11
19 -78 43 -149 39 -117 46 -129 69 -132 31 -4 38 11 99 222 38 133 53 163 84
175 16 6 22 15 19 27 -4 16 -16 19 -75 18 -65 0 -69 -1 -69 -22 0 -21 10 -28
33 -24 5 1 5 -9 1 -21 -4 -13 -22 -75 -40 -138 -28 -100 -33 -111 -39 -85 -12
54 -66 229 -80 261 -12 29 -43 40 -61 21 -4 -3 -26 -72 -49 -152 -23 -80 -45
-147 -48 -150 -4 -3 -5 -3 -3 0 2 3 -5 38 -16 78 -44 163 -45 173 -19 187 12
6 21 19 19 27 -2 14 -18 17 -86 17 -46 1 -87 -1 -91 -4z"/>
<path d="M1118 1839 c-17 -11 1 -47 21 -42 17 4 18 -6 17 -163 -1 -161 -2
-167 -23 -182 -22 -14 -31 -41 -15 -43 54 -6 315 -2 320 6 12 20 8 125 -5 125
-7 0 -15 0 -18 0 -3 0 -5 -2 -5 -5 0 -3 -7 -19 -15 -36 -19 -36 -41 -45 -103
-44 l-46 0 1 55 c1 30 2 65 2 78 1 17 7 22 30 22 26 0 38 -10 39 -34 0 -13 23
-25 37 -20 8 3 12 31 12 79 -1 72 -2 75 -24 75 -19 0 -23 -5 -23 -28 0 -25 -3
-28 -35 -28 -38 0 -39 2 -36 86 2 54 10 63 51 62 51 -1 69 -12 81 -47 8 -22
19 -33 30 -32 15 1 18 10 16 59 -1 32 -4 58 -7 59 -22 5 -294 3 -302 -2z"/>
<path d="M1995 1840 c-1 -3 -3 -35 -4 -72 -2 -62 0 -68 19 -68 11 0 20 6 21
13 3 55 23 78 70 80 l34 2 0 -160 c0 -153 -1 -161 -22 -181 -25 -24 -30 -43
-10 -45 13 -1 107 -1 149 0 19 1 25 6 23 19 -2 9 -4 20 -4 23 -1 3 -11 5 -23
5 -21 -1 -21 2 -20 144 1 219 -3 200 32 200 35 0 63 -27 70 -68 4 -19 11 -27
25 -27 21 0 20 -3 16 110 l-1 30 -186 0 c-102 0 -187 -2 -189 -5z"/>
<path d="M2484 1841 c-2 -2 -4 -14 -4 -26 0 -17 6 -22 22 -21 23 1 23 1 22
-164 0 -161 0 -165 -22 -175 -14 -6 -22 -17 -20 -29 3 -17 11 -19 68 -19 116
2 112 1 108 26 -2 15 -9 21 -20 19 -21 -3 -20 -6 -22 76 -1 35 2 66 7 69 17
10 149 8 155 -2 11 -16 11 -108 1 -127 -5 -10 -17 -18 -25 -18 -10 0 -14 -8
-12 -22 3 -21 8 -23 78 -23 92 -1 100 2 100 29 0 17 -6 22 -22 22 -22 -1 -22
1 -21 149 1 83 2 158 2 167 1 9 10 20 22 23 13 5 19 14 17 28 -3 19 -10 21
-88 21 -84 1 -85 1 -85 -24 0 -18 5 -25 20 -25 18 0 20 -7 20 -70 l0 -70 -86
-3 -85 -3 1 67 c1 58 4 69 23 82 12 8 22 22 22 31 0 13 -13 16 -86 16 -47 0
-88 -2 -90 -4z"/>
<path d="M3051 1840 c-18 -13 3 -52 24 -43 13 4 15 -18 15 -155 0 -166 -3
-192 -25 -192 -21 0 -26 -29 -7 -38 13 -6 227 -8 303 -3 12 1 15 13 13 64 0
34 -2 65 -3 68 -2 9 -31 7 -32 -3 -10 -66 -34 -84 -109 -83 l-45 0 -3 78 -3
77 31 0 c24 0 34 -6 43 -28 8 -18 18 -26 30 -24 14 3 17 15 17 78 0 72 -1 74
-25 74 -21 0 -25 -5 -25 -29 0 -26 -3 -29 -35 -28 l-35 1 0 61 c0 34 5 66 12
73 16 16 93 15 106 -1 6 -6 13 -24 17 -37 10 -41 53 -36 46 4 -1 6 -3 27 -3
48 0 21 -5 38 -12 39 -42 4 -289 3 -295 -1z"/>
<path d="M3500 1817 c0 -16 5 -27 13 -26 30 4 32 -4 30 -148 -3 -166 -7 -193
-28 -193 -9 0 -15 -9 -15 -22 0 -22 3 -23 90 -23 61 0 91 4 94 12 7 17 -21 43
-39 37 -11 -5 -14 7 -14 55 0 33 5 63 10 67 12 7 62 -46 82 -89 9 -18 26 -44
39 -58 22 -23 48 -28 121 -20 15 2 6 22 -19 44 -14 12 -40 42 -57 67 -17 25
-37 50 -46 56 -11 9 -7 15 27 34 95 53 84 189 -18 221 -19 6 -88 12 -152 13
l-118 1 0 -28z m234 -40 c22 -23 25 -39 17 -114 -2 -18 -51 -41 -86 -39 l-30
1 -2 74 c-2 43 2 80 8 88 18 21 67 16 93 -10z"/>
</g>
</svg>
