<svg width="400" height="282" viewBox="0 0 400 282" fill="none" xmlns="http://www.w3.org/2000/svg">
<path d="M101.256 184.905C97.2056 187.475 92.6883 188.76 87.7037 188.76C82.7971 188.76 78.2409 187.475 74.0352 184.905C69.7516 187.475 65.8184 188.76 62.2358 188.76C58.6531 188.76 55.7714 188.449 53.5907 187.826C51.4099 187.281 49.5018 186.502 47.8662 185.489C44.5172 183.464 42.8427 180.933 42.8427 177.896C42.8427 176.338 43.2711 174.975 44.1278 173.807C45.8413 175.131 48.0999 175.793 50.9037 175.793C53.7854 175.793 56.6671 175.053 59.5488 173.573C62.5084 172.093 64.7281 169.796 66.2078 166.68V109.786C66.2078 106.204 65.468 103.556 63.9882 101.842C61.6517 98.9606 57.6406 96.1178 51.9551 93.314C57.2512 90.8996 60.6781 88.7578 62.2358 86.8886C64.8838 83.8511 66.2078 80.4242 66.2078 76.6079V22.4009C63.6377 21.4663 60.5613 20.999 56.9786 20.999C53.4739 20.999 49.7744 21.9336 45.8802 23.8028C41.986 25.672 38.4813 28.3979 35.3659 31.9806C28.4343 40.0805 24.9684 50.6727 24.9684 63.7571C24.9684 71.3118 26.2146 76.8805 28.7068 80.4632C27.7722 82.4103 26.0199 83.3838 23.4497 83.3838C20.8795 83.3838 18.582 82.7997 16.557 81.6314C14.532 80.4632 12.7796 78.8666 11.2998 76.8416C8.26238 72.7916 6.74365 68.4301 6.74365 63.7571C6.74365 59.0841 7.60037 55.112 9.31381 51.8409C6.43211 48.414 4.99126 44.5588 4.99126 40.2752C4.99126 35.9137 6.15952 32.3311 8.49603 29.5272C5.22491 26.0225 3.58936 21.3105 3.58936 15.3913C3.58936 8.53758 6.74365 3.94245 13.0522 1.60593C14.9214 0.904981 16.557 0.554504 17.9589 0.554504C20.6069 0.554504 22.593 1.13863 23.917 2.30689C23.3718 4.1761 23.0992 5.50012 23.0992 6.27896C23.0992 9.3943 24.1896 10.952 26.3703 10.952C27.5386 10.952 28.7458 10.7962 29.9919 10.4847L35.2491 8.96594C44.3615 6.55155 51.9551 5.34435 58.0301 5.34435C64.105 5.34435 69.44 6.66837 74.0352 9.31642C78.0072 6.66837 82.5245 5.34435 87.5869 5.34435C92.6494 5.34435 97.2445 6.66837 101.372 9.31642C105.812 6.66837 110.407 5.34435 115.158 5.34435C122.712 5.34435 129.333 6.12319 135.018 7.68086L145.416 10.4847C146.662 10.7962 147.869 10.952 149.037 10.952C151.218 10.952 152.308 9.3943 152.308 6.27896C152.308 5.50012 152.036 4.1761 151.49 2.30689C152.815 1.13863 154.489 0.554504 156.514 0.554504C158.539 0.554504 160.486 0.904981 162.355 1.60593C164.224 2.30689 165.86 3.31938 167.262 4.6434C170.299 7.36933 171.818 11.3025 171.818 16.4428C171.818 21.5052 170.183 25.8667 166.911 29.5272C169.248 32.3311 170.416 35.8748 170.416 40.1584C170.416 44.442 168.936 48.3362 165.977 51.8409C167.768 55.0342 168.664 58.2274 168.664 61.4206C168.664 64.6138 168.274 67.4955 167.496 70.0657C166.717 72.6359 165.587 74.8945 164.108 76.8416C160.914 81.2031 156.903 83.3838 152.075 83.3838C149.427 83.3838 147.635 82.4103 146.701 80.4632C149.193 76.8805 150.439 71.5066 150.439 64.3413C150.439 57.0981 149.466 50.8284 147.518 45.5323C145.649 40.1584 143.157 35.6411 140.042 31.9806C133.733 24.6595 126.295 20.999 117.728 20.999C114.457 20.999 111.614 21.4663 109.2 22.4009V76.6079C109.2 80.4242 110.017 83.267 111.653 85.1362C114.223 88.1737 118.156 90.8996 123.452 93.314C117.767 96.1178 114.145 98.4154 112.588 100.207C110.329 103.011 109.2 106.204 109.2 109.786V166.68C110.602 169.796 112.743 172.093 115.625 173.573C118.585 175.053 121.505 175.793 124.387 175.793C127.269 175.793 129.566 175.131 131.28 173.807C132.136 174.975 132.565 176.338 132.565 177.896C132.565 179.375 132.097 180.777 131.163 182.101C130.306 183.425 129.099 184.555 127.541 185.489C123.959 187.67 119.753 188.76 114.924 188.76C110.173 188.76 105.617 187.475 101.256 184.905ZM77.4231 155.465C81.3173 153.985 83.4591 148.884 83.8485 140.161C84.3158 131.438 84.5495 119.366 84.5495 103.945C84.5495 88.5241 84.5105 78.2824 84.4326 73.22C84.4326 68.0797 84.3937 63.9518 84.3158 60.8365C84.0822 51.6462 83.1865 46.1165 81.6288 44.2473C80.149 42.3002 78.7471 41.0151 77.4231 40.392C77.4231 67.4955 76.9558 82.9165 76.0212 86.6549C74.9308 89.7703 72.2828 91.99 68.0771 93.314C72.7501 94.9495 75.3981 96.9356 76.0212 99.2721C76.9558 103.011 77.4231 116.679 77.4231 140.278V155.465Z" fill="#84C318"/>
<path d="M358.059 169.959C358.059 174.164 361.837 177.397 369.391 179.655C363.005 182.225 358.566 184.64 356.073 186.898C351.322 191.338 347.584 197.101 344.858 204.189L324.53 262.601C320.169 273.661 316.859 279.892 314.6 281.293C313.899 281.761 313.081 281.994 312.147 281.994C311.212 281.994 310.433 281.722 309.81 281.177L269.973 165.402L233.406 262.601C229.045 273.505 225.735 279.736 223.476 281.293C222.775 281.761 221.958 281.994 221.023 281.994C220.088 281.994 219.309 281.722 218.686 281.177L180.952 196.244C179.083 191.805 177.097 188.651 174.994 186.782C171.723 183.978 167.439 181.602 162.143 179.655C168.841 175.839 172.112 172.295 171.956 169.024C171.956 166.921 171.177 164.001 169.62 160.262L166.349 152.318L150.46 109.443C146.41 106.639 142.867 105.237 139.829 105.237C136.87 105.237 134.416 105.899 132.469 107.223C131.612 106.6 131.184 105.432 131.184 103.719C131.184 102.005 131.457 100.447 132.002 99.0456C132.547 97.5658 133.404 96.2807 134.572 95.1903C137.064 92.8538 140.686 91.6855 145.437 91.6855C150.188 91.6855 154.393 93.0485 158.054 95.7744C161.948 93.0485 166.543 91.6855 171.839 91.6855C177.213 91.6855 181.614 93.0096 185.041 95.6576C189.168 93.0096 193.024 91.6855 196.606 91.6855C200.189 91.6855 203.071 91.9581 205.251 92.5033C207.432 92.9706 209.34 93.7105 210.976 94.723C214.481 96.748 216.311 99.5518 216.467 103.134C216.467 105.315 216.038 106.678 215.182 107.223C213.079 105.899 210.937 105.237 208.756 105.237C203.85 105.237 200.033 106.172 197.307 108.041L235.276 214.119L261.094 139.701L250.697 109.326C246.725 106.6 243.259 105.237 240.299 105.237C237.34 105.237 234.886 105.899 232.939 107.223C232.082 106.6 231.654 105.432 231.654 103.719C231.654 102.005 231.927 100.447 232.472 99.0456C233.017 97.5658 233.874 96.2807 235.042 95.1903C237.534 92.8538 241.156 91.6855 245.907 91.6855C250.658 91.6855 254.863 93.0485 258.524 95.7744C262.418 93.0485 267.013 91.6855 272.309 91.6855C277.683 91.6855 282.084 93.0096 285.511 95.6576C289.638 93.0096 293.494 91.6855 297.076 91.6855C300.659 91.6855 303.541 91.9581 305.721 92.5033C307.902 92.9706 309.81 93.7105 311.446 94.723C314.951 96.748 316.781 99.5518 316.937 103.134C316.937 105.315 316.508 106.678 315.652 107.223C313.549 105.899 311.407 105.237 309.226 105.237C304.164 105.237 300.309 106.211 297.66 108.158L328.853 205.941L360.396 108.392C357.904 105.899 354.321 104.653 349.648 104.653C344.975 104.653 341.509 105.315 339.25 106.639C338.472 105.471 338.082 103.641 338.082 101.148C338.082 98.6561 339.134 96.4754 341.236 94.6062C343.339 92.6591 346.338 91.6855 350.232 91.6855C354.126 91.6855 357.475 92.698 360.279 94.723C362.771 92.698 365.809 91.6855 369.391 91.6855C372.974 91.6855 375.973 92.5423 378.387 94.2557C381.814 92.5423 385.241 91.6855 388.668 91.6855C392.094 91.6855 394.82 92.8149 396.845 95.0735C398.948 97.2542 400 100.097 400 103.602C400 105.393 399.571 106.6 398.715 107.223C396.69 105.899 394.236 105.237 391.355 105.237C386.058 105.237 381.58 107.223 377.92 111.195L362.031 155.005C359.383 162.326 358.059 167.311 358.059 169.959ZM273.711 126.266C272.543 127.901 271.959 130.355 271.959 133.626C271.959 136.897 272.621 140.441 273.945 144.257L278.151 156.757L309.81 241.806C310.2 241.339 310.317 240.521 310.161 239.353C310.083 238.185 310.044 236.51 310.044 234.33C310.044 232.071 309.927 230.124 309.694 228.488C309.46 226.775 309.148 225.022 308.759 223.231C308.214 220.116 307.279 216.611 305.955 212.717L273.711 126.266ZM176.045 126.733C174.487 127.668 173.709 129.148 173.709 131.173C173.709 133.12 173.786 134.599 173.942 135.612C174.098 136.624 174.41 137.948 174.877 139.584C175.889 143.712 177.174 148.073 178.732 152.668C180.368 157.186 181.458 160.418 182.003 162.365C182.548 164.234 182.938 165.831 183.171 167.155C183.483 168.479 183.678 169.569 183.756 170.426C183.833 171.283 183.911 172.217 183.989 173.23C184.145 175.333 181.731 177.397 176.746 179.422C179.939 180.045 182.432 180.59 184.223 181.057C186.092 181.524 187.416 182.42 188.195 183.744C188.974 184.99 190.064 187.093 191.466 190.053C192.946 193.012 194.504 196.361 196.139 200.1L201.163 212.016C202.876 216.144 204.356 219.96 205.602 223.465C206.926 226.97 208.133 229.851 209.224 232.11C210.392 234.291 211.482 236.082 212.495 237.484C214.442 239.898 216.7 241.339 219.271 241.806C214.987 231.292 210.937 220.934 207.121 210.731C203.382 200.45 199.566 190.559 195.672 181.057C191.778 171.477 188.351 162.17 185.391 153.136C182.509 144.101 179.394 135.3 176.045 126.733Z" fill="#DD403A"/>
<path d="M17.1954 216.363C17.1954 214.677 16.8521 213.429 16.1656 212.618C15.479 211.785 14.5428 211.38 13.3569 211.401H11.8589V226.037C11.8589 226.599 11.8485 227.14 11.8277 227.66C11.8069 228.18 11.7757 228.575 11.7341 228.846C12.0878 228.804 12.5351 228.783 13.076 228.783C13.6377 228.762 14.0226 228.752 14.2307 228.752V231.155H5.11806V229.095C5.59657 229.074 5.99187 229.012 6.30395 228.908C6.63683 228.804 6.88649 228.565 7.05293 228.19C7.24018 227.816 7.3338 227.212 7.3338 226.38V211.432H5.89825C4.71236 211.453 3.77613 211.858 3.08956 212.649C2.40299 213.439 2.05971 214.677 2.05971 216.363H0L0.156038 209.31H19.0679L19.2551 216.363H17.1954Z" fill="#342C35"/>
<path d="M35.0896 223.634C35.0896 222.76 34.9544 222.136 34.6839 221.761C34.4134 221.366 34.0389 221.116 33.5604 221.012C33.1027 220.908 32.593 220.867 32.0312 220.888L31.2198 220.919V226.037C31.2198 226.599 31.2094 227.129 31.1886 227.628C31.1678 228.128 31.1366 228.513 31.095 228.783H35.2768C35.901 228.783 36.5043 228.648 37.0869 228.377C37.6694 228.086 38.148 227.618 38.5224 226.973C38.8969 226.307 39.0842 225.413 39.0842 224.289H41.1127L40.9566 231.155H24.479V229.095C24.9575 229.074 25.3528 229.012 25.6649 228.908C25.9978 228.804 26.2474 228.565 26.4139 228.19C26.6011 227.816 26.6947 227.212 26.6947 226.38V214.428C26.6947 213.866 26.7051 213.325 26.7259 212.805C26.7676 212.285 26.7988 211.889 26.8196 211.619C26.4867 211.64 26.0706 211.661 25.5713 211.681C25.0719 211.681 24.7079 211.692 24.479 211.713V209.31H40.0828L40.2701 215.364H38.2104C38.2104 214.22 38.0127 213.356 37.6174 212.774C37.2221 212.191 36.7332 211.806 36.1507 211.619C35.5681 211.411 34.996 211.317 34.4342 211.338L33.3108 211.369C32.8739 211.369 32.4994 211.432 32.1873 211.557C31.8752 211.661 31.636 211.91 31.4695 212.306C31.3031 212.68 31.2198 213.273 31.2198 214.084V218.766H34.8711L34.7463 216.05H37.1493V223.634H35.0896Z" fill="#342C35"/>
<path d="M58.2464 231.467C57.539 229.74 56.8317 228.024 56.1243 226.318C55.4377 224.612 54.7408 222.906 54.0334 221.2C53.8669 220.804 53.6485 220.253 53.378 219.546C53.1284 218.818 52.8579 217.985 52.5666 217.049C52.2962 216.113 52.0465 215.145 51.8176 214.147C51.8592 215.312 51.8905 216.415 51.9113 217.455C51.9321 218.474 51.9321 219.452 51.9113 220.388C51.9113 221.325 51.9009 222.271 51.8801 223.228C51.8801 224.164 51.8801 225.101 51.8801 226.037C51.8801 226.599 51.8592 227.14 51.8176 227.66C51.7968 228.18 51.7656 228.575 51.724 228.846C52.0777 228.804 52.5042 228.783 53.0035 228.783C53.5237 228.762 53.8877 228.752 54.0958 228.752V231.155H46.9804V229.095C47.459 229.074 47.8543 229.012 48.1663 228.908C48.4992 228.804 48.7489 228.565 48.9153 228.19C49.1026 227.816 49.1962 227.212 49.1962 226.38L49.3834 214.428C49.4042 213.866 49.425 213.325 49.4459 212.805C49.4667 212.285 49.4875 211.889 49.5083 211.619C49.1754 211.64 48.7593 211.661 48.26 211.681C47.7606 211.681 47.3966 211.692 47.1677 211.713V209.31H54.0646L58.7769 221.387C58.9642 221.865 59.1722 222.427 59.4011 223.072C59.63 223.696 59.8484 224.31 60.0565 224.913C60.2645 225.496 60.4205 225.964 60.5246 226.318H60.5558C60.8262 225.59 61.0759 224.882 61.3048 224.196C61.5336 223.509 61.7729 222.843 62.0225 222.198C62.8339 220.035 63.6349 217.881 64.4255 215.738C65.2369 213.595 66.0483 211.453 66.8597 209.31H74.0687V211.369C73.611 211.39 73.2053 211.453 72.8516 211.557C72.4979 211.661 72.2274 211.9 72.0402 212.274C71.8738 212.628 71.8009 213.231 71.8217 214.084L72.2899 226.037C72.3315 226.599 72.3315 227.14 72.2899 227.66C72.2482 228.18 72.2066 228.575 72.165 228.846C72.5187 228.804 72.9452 228.783 73.4445 228.783C73.9647 228.762 74.3288 228.752 74.5368 228.752V231.155H65.8611V229.095C66.3396 229.074 66.7453 229.012 67.0782 228.908C67.4319 228.804 67.6919 228.565 67.8584 228.19C68.0456 227.816 68.1184 227.212 68.0768 226.38L67.8272 219.764C67.8272 219.514 67.8064 219.088 67.7647 218.485C67.7231 217.86 67.6815 217.184 67.6399 216.456C67.6191 215.707 67.5983 215.01 67.5775 214.365C67.5151 214.511 67.4527 214.657 67.3903 214.802C67.3278 214.927 67.2758 215.062 67.2342 215.208L61.1487 231.467H58.2464Z" fill="#342C35"/>
<path d="M80.5187 229.095C80.9972 229.074 81.3925 229.012 81.7046 228.908C82.0375 228.804 82.2871 228.565 82.4536 228.19C82.6408 227.816 82.7344 227.212 82.7344 226.38V214.428C82.7344 213.866 82.7448 213.325 82.7656 212.805C82.8072 212.285 82.8385 211.889 82.8593 211.619C82.5264 211.64 82.1103 211.661 81.611 211.681C81.1116 211.681 80.7475 211.692 80.5187 211.713V209.31C81.9958 209.289 83.473 209.278 84.9502 209.278C86.4273 209.278 87.9045 209.268 89.3817 209.247C91.2125 209.226 92.8041 209.466 94.1564 209.965C95.5296 210.464 96.5802 211.234 97.3084 212.274C98.0574 213.315 98.4111 214.667 98.3695 216.331C98.3487 217.434 98.0054 218.505 97.3396 219.546C96.6947 220.586 95.7168 221.449 94.4061 222.136C93.1162 222.823 91.483 223.197 89.5065 223.259C88.6535 223.28 87.9045 223.28 87.2595 223.259V226.006C87.2595 226.588 87.2491 227.14 87.2283 227.66C87.2075 228.18 87.1763 228.575 87.1347 228.846C87.3636 228.825 87.6548 228.814 88.0085 228.814C88.3622 228.794 88.7055 228.783 89.0384 228.783C89.3921 228.762 89.6417 228.752 89.7874 228.752V231.155H80.5187V229.095ZM87.2595 220.919C87.6964 220.981 88.1646 221.012 88.6639 221.012C90.3907 221.012 91.6286 220.586 92.3776 219.733C93.1474 218.859 93.5323 217.632 93.5323 216.05C93.5323 215.01 93.3866 214.178 93.0954 213.554C92.8249 212.93 92.4712 212.472 92.0343 212.181C91.5974 211.869 91.1397 211.671 90.6612 211.588C90.1827 211.484 89.7457 211.432 89.3504 211.432C88.7055 211.432 88.1958 211.567 87.8213 211.837C87.4468 212.108 87.2595 212.794 87.2595 213.897V220.919Z" fill="#342C35"/>
<path d="M119.705 216.363C119.705 214.677 119.362 213.429 118.675 212.618C117.989 211.785 117.053 211.38 115.867 211.401H114.369V226.037C114.369 226.599 114.358 227.14 114.338 227.66C114.317 228.18 114.286 228.575 114.244 228.846C114.598 228.804 115.045 228.783 115.586 228.783C116.148 228.762 116.532 228.752 116.741 228.752V231.155H107.628V229.095C108.106 229.074 108.502 229.012 108.814 228.908C109.147 228.804 109.396 228.565 109.563 228.19C109.75 227.816 109.844 227.212 109.844 226.38V211.432H108.408C107.222 211.453 106.286 211.858 105.599 212.649C104.913 213.439 104.57 214.677 104.57 216.363H102.51L102.666 209.31H121.578L121.765 216.363H119.705Z" fill="#342C35"/>
<path d="M27.7854 270.872L22.2304 254.051C22.0224 253.448 21.8559 252.896 21.7311 252.397C21.6271 251.898 21.5751 251.481 21.5751 251.149C21.1798 251.169 20.8261 251.19 20.514 251.211C20.2227 251.211 19.9419 251.221 19.6714 251.242V248.839H28.8776V250.899C28.1079 250.878 27.5357 251.024 27.1612 251.336C26.8075 251.648 26.7659 252.282 27.0364 253.24C27.3485 254.425 27.6605 255.611 27.9726 256.797C28.2847 257.983 28.5968 259.169 28.9089 260.355C29.0961 261.062 29.2625 261.728 29.4082 262.352C29.5746 262.976 29.7515 263.788 29.9387 264.786H29.9699C30.0531 264.495 30.178 264.048 30.3444 263.444C30.5108 262.841 30.6877 262.196 30.8749 261.51C31.083 260.802 31.2598 260.168 31.4055 259.606C31.5719 259.023 31.6863 258.618 31.7488 258.389C32.2273 256.787 32.7058 255.195 33.1843 253.614C33.6836 252.012 34.1725 250.42 34.6511 248.839H37.4598C38.0631 250.753 38.656 252.667 39.2386 254.581C39.8419 256.496 40.4349 258.41 41.0174 260.324C41.2463 261.031 41.4439 261.77 41.6104 262.539C41.7976 263.288 41.9745 264.048 42.1409 264.818H42.1721C42.3594 264.152 42.5466 263.465 42.7338 262.758C42.9419 262.03 43.1499 261.281 43.358 260.511C43.6493 259.408 43.9405 258.316 44.2318 257.234C44.5231 256.152 44.8144 255.07 45.1056 253.989C45.2305 253.489 45.3969 252.979 45.605 252.459C45.813 251.918 46.0731 251.481 46.3851 251.149C46.0523 251.169 45.6258 251.19 45.1056 251.211C44.5855 251.211 44.211 251.221 43.9822 251.242V248.839H51.0039V250.899C50.2965 250.92 49.6724 251.18 49.1314 251.679C48.5905 252.158 48.112 253.011 47.6959 254.238C46.8637 257.005 46.0211 259.772 45.168 262.539C44.315 265.306 43.462 268.084 42.609 270.872H39.8315L36.149 259.7C35.8786 258.888 35.6497 258.098 35.4625 257.328C35.296 256.537 35.1296 255.788 34.9631 255.081C34.8591 255.788 34.7343 256.475 34.5886 257.14C34.443 257.785 34.2662 258.462 34.0581 259.169L30.5004 270.872H27.7854Z" fill="#342C35"/>
<path d="M66.2527 263.164C66.2527 262.29 66.1175 261.666 65.847 261.291C65.5766 260.896 65.2021 260.646 64.7235 260.542C64.2658 260.438 63.7561 260.396 63.1944 260.417L62.383 260.449V265.567C62.383 266.128 62.3726 266.659 62.3518 267.158C62.331 267.657 62.2997 268.042 62.2581 268.313H66.44C67.0641 268.313 67.6675 268.178 68.25 267.907C68.8326 267.616 69.3111 267.148 69.6856 266.503C70.0601 265.837 70.2473 264.942 70.2473 263.819H72.2758L72.1198 270.685H55.6421V268.625C56.1206 268.604 56.5159 268.542 56.828 268.438C57.1609 268.334 57.4106 268.094 57.577 267.72C57.7642 267.345 57.8579 266.742 57.8579 265.91V253.957C57.8579 253.396 57.8683 252.855 57.8891 252.335C57.9307 251.814 57.9619 251.419 57.9827 251.149C57.6498 251.169 57.2337 251.19 56.7344 251.211C56.2351 251.211 55.871 251.221 55.6421 251.242V248.839H71.2459L71.4332 254.894H69.3735C69.3735 253.749 69.1758 252.886 68.7805 252.303C68.3852 251.721 67.8963 251.336 67.3138 251.149C66.7312 250.941 66.1591 250.847 65.5974 250.868L64.4739 250.899C64.037 250.899 63.6625 250.961 63.3504 251.086C63.0383 251.19 62.7991 251.44 62.6326 251.835C62.4662 252.21 62.383 252.803 62.383 253.614V258.295H66.0343L65.9094 255.58H68.3124V263.164H66.2527Z" fill="#342C35"/>
<path d="M76.8016 270.685V268.531C77.3842 268.531 77.8523 268.365 78.206 268.032C78.5597 267.699 78.8509 267.262 79.0798 266.721C79.3295 266.18 79.5687 265.598 79.7976 264.974L85.8831 248.278H88.0676L94.7148 265.286C94.8397 265.598 95.0061 266.076 95.2142 266.721C95.4222 267.345 95.547 267.897 95.5887 268.375C95.9423 268.334 96.2752 268.313 96.5873 268.313C96.9202 268.292 97.1906 268.282 97.3987 268.282V270.685H89.0038V268.625C89.8568 268.625 90.3354 268.365 90.4394 267.845C90.5434 267.304 90.4498 266.648 90.1585 265.879L89.5344 264.162L82.7623 264.287L82.263 265.754C82.159 266.024 82.0029 266.43 81.7949 266.971C81.6076 267.491 81.4308 267.928 81.2643 268.282C81.5972 268.24 81.9925 268.219 82.4502 268.219C82.9287 268.198 83.272 268.188 83.4801 268.188V270.685H76.8016ZM83.5425 261.946H88.7542L87.3186 258.046C87.0482 257.297 86.8089 256.548 86.6008 255.799C86.3928 255.029 86.2368 254.353 86.1327 253.77H86.1015C86.0183 254.124 85.8935 254.654 85.727 255.362C85.5606 256.069 85.3005 256.912 84.9468 257.889L83.5425 261.946Z" fill="#342C35"/>
<path d="M116.692 255.892C116.692 254.207 116.349 252.959 115.662 252.147C114.976 251.315 114.04 250.909 112.854 250.93H111.356V265.567C111.356 266.128 111.345 266.669 111.325 267.189C111.304 267.709 111.273 268.105 111.231 268.375C111.585 268.334 112.032 268.313 112.573 268.313C113.135 268.292 113.52 268.282 113.728 268.282V270.685H104.615V268.625C105.093 268.604 105.489 268.542 105.801 268.438C106.134 268.334 106.383 268.094 106.55 267.72C106.737 267.345 106.831 266.742 106.831 265.91V250.961H105.395C104.209 250.982 103.273 251.388 102.586 252.178C101.9 252.969 101.557 254.207 101.557 255.892H99.4969L99.653 248.839H118.565L118.752 255.892H116.692Z" fill="#342C35"/>
<path d="M123.976 270.685V268.625C124.454 268.604 124.85 268.542 125.162 268.438C125.495 268.334 125.744 268.094 125.911 267.72C126.098 267.345 126.192 266.742 126.192 265.91V253.957C126.192 253.396 126.202 252.855 126.223 252.335C126.264 251.814 126.296 251.419 126.316 251.149C125.984 251.169 125.568 251.19 125.068 251.211C124.569 251.211 124.205 251.221 123.976 251.242V248.839H132.933V250.899C132.475 250.92 132.08 250.982 131.747 251.086C131.414 251.19 131.154 251.429 130.966 251.804C130.8 252.158 130.717 252.761 130.717 253.614V258.482H139.299V253.957C139.299 253.396 139.309 252.855 139.33 252.335C139.351 251.814 139.382 251.419 139.424 251.149C139.091 251.169 138.675 251.19 138.175 251.211C137.676 251.211 137.312 251.221 137.083 251.242V248.839H146.04V250.899C145.582 250.92 145.187 250.982 144.854 251.086C144.521 251.19 144.261 251.429 144.074 251.804C143.907 252.158 143.824 252.761 143.824 253.614V265.567C143.824 266.128 143.814 266.669 143.793 267.189C143.772 267.709 143.741 268.105 143.699 268.375C144.032 268.334 144.448 268.313 144.947 268.313C145.468 268.292 145.832 268.282 146.04 268.282V270.685H137.083V268.625C137.562 268.604 137.957 268.542 138.269 268.438C138.602 268.334 138.852 268.094 139.018 267.72C139.205 267.345 139.299 266.742 139.299 265.91V260.854L130.717 260.948V265.567C130.717 266.128 130.706 266.669 130.686 267.189C130.665 267.709 130.634 268.105 130.592 268.375C130.925 268.334 131.341 268.313 131.84 268.313C132.36 268.292 132.724 268.282 132.933 268.282V270.685H123.976Z" fill="#342C35"/>
<path d="M162.881 263.164C162.881 262.29 162.745 261.666 162.475 261.291C162.204 260.896 161.83 260.646 161.351 260.542C160.894 260.438 160.384 260.396 159.822 260.417L159.011 260.449V265.567C159.011 266.128 159 266.659 158.98 267.158C158.959 267.657 158.928 268.042 158.886 268.313H163.068C163.692 268.313 164.295 268.178 164.878 267.907C165.46 267.616 165.939 267.148 166.313 266.503C166.688 265.837 166.875 264.942 166.875 263.819H168.904L168.748 270.685H152.27V268.625C152.749 268.604 153.144 268.542 153.456 268.438C153.789 268.334 154.038 268.094 154.205 267.72C154.392 267.345 154.486 266.742 154.486 265.91V253.957C154.486 253.396 154.496 252.855 154.517 252.335C154.559 251.814 154.59 251.419 154.611 251.149C154.278 251.169 153.862 251.19 153.362 251.211C152.863 251.211 152.499 251.221 152.27 251.242V248.839H167.874L168.061 254.894H166.001C166.001 253.749 165.804 252.886 165.408 252.303C165.013 251.721 164.524 251.336 163.942 251.149C163.359 250.941 162.787 250.847 162.225 250.868L161.102 250.899C160.665 250.899 160.29 250.961 159.978 251.086C159.666 251.19 159.427 251.44 159.261 251.835C159.094 252.21 159.011 252.803 159.011 253.614V258.295H162.662L162.537 255.58H164.94V263.164H162.881Z" fill="#342C35"/>
<path d="M174.865 270.685V268.625C175.344 268.604 175.739 268.542 176.051 268.438C176.384 268.334 176.634 268.094 176.8 267.72C176.987 267.345 177.081 266.742 177.081 265.91V253.957C177.081 253.396 177.091 252.855 177.112 252.335C177.154 251.814 177.185 251.419 177.206 251.149C176.873 251.169 176.457 251.19 175.957 251.211C175.458 251.211 175.094 251.221 174.865 251.242V248.839C176.342 248.818 177.819 248.808 179.297 248.808C180.774 248.808 182.251 248.798 183.728 248.777C185.559 248.756 187.151 248.964 188.503 249.401C189.855 249.838 190.895 250.545 191.624 251.523C192.352 252.501 192.695 253.822 192.653 255.486C192.612 256.818 192.144 258.025 191.249 259.107C190.355 260.188 188.992 260.989 187.161 261.51C187.556 261.676 187.941 261.946 188.316 262.321C188.711 262.695 189.044 263.091 189.314 263.507L190.781 265.691C191.468 266.752 192.04 267.501 192.497 267.938C192.976 268.354 193.569 268.583 194.276 268.625V270.685H189.127C188.753 270.414 188.378 270.029 188.004 269.53C187.65 269.01 187.265 268.417 186.849 267.751L184.54 264.006C184.019 263.174 183.582 262.571 183.229 262.196H181.606V265.535C181.606 266.118 181.596 266.669 181.575 267.189C181.554 267.709 181.523 268.105 181.481 268.375C181.71 268.354 182.001 268.344 182.355 268.344C182.709 268.323 183.052 268.313 183.385 268.313C183.739 268.292 183.988 268.282 184.134 268.282V270.685H174.865ZM183.104 259.949C184.831 259.949 186.069 259.564 186.818 258.794C187.567 258.004 187.941 256.818 187.941 255.237C187.941 254.238 187.785 253.458 187.473 252.896C187.161 252.314 186.766 251.887 186.287 251.617C185.829 251.325 185.361 251.149 184.883 251.086C184.404 251.003 184.009 250.961 183.697 250.961C183.052 250.961 182.542 251.097 182.168 251.367C181.793 251.638 181.606 252.324 181.606 253.427V259.824C181.835 259.845 182.074 259.876 182.324 259.918C182.573 259.939 182.833 259.949 183.104 259.949Z" fill="#342C35"/>
</svg>
